HIERARCHY
ROOT Hips
{
  OFFSET 2.26061 22.2878 23.7974
  CHANNELS 6 Xposition Yposition Zposition Zrotation Xrotation Yrotation
  JOINT LeftUpLeg
  {
    OFFSET 8.64259 1.95398 -2.38835
    CHANNELS 3 Zrotation Xrotation Yrotation
    JOINT LeftLeg
    {
      OFFSET 43.7702 0 0
      CHANNELS 3 Zrotation Xrotation Yrotation
      JOINT LeftFoot
      {
        OFFSET 40.6238 0 0
        CHANNELS 3 Zrotation Xrotation Yrotation
        JOINT LeftToeBase
        {
          OFFSET 12.7242 0 0
          CHANNELS 3 Zrotation Xrotation Yrotation
          End Site
          {
            OFFSET 0 0 0
          }
        }
      }
    }
  }
  JOINT RightUpLeg
  {
    OFFSET -8.2249 1.95398 -2.59336
    CHANNELS 3 Zrotation Xrotation Yrotation
    JOINT RightLeg
    {
      OFFSET 43.5653 0 0
      CHANNELS 3 Zrotation Xrotation Yrotation
      JOINT RightFoot
      {
        OFFSET 40.6238 0 0
        CHANNELS 3 Zrotation Xrotation Yrotation
        JOINT RightToeBase
        {
          OFFSET 12.7242 0 0
          CHANNELS 3 Zrotation Xrotation Yrotation
          End Site
          {
            OFFSET 0 0 0
          }
        }
      }
    }
  }
  JOINT Spine
  {
    OFFSET 0.165834 0.87714 6.61349
    CHANNELS 3 Zrotation Xrotation Yrotation
    JOINT Spine1
    {
      OFFSET 7.38963 1.71661e-005 0
      CHANNELS 3 Zrotation Xrotation Yrotation
      JOINT Spine2
      {
        OFFSET 11.9445 1.14441e-005 0
        CHANNELS 3 Zrotation Xrotation Yrotation
        JOINT Spine3
        {
          OFFSET 14.7254 4.19617e-005 0
          CHANNELS 3 Zrotation Xrotation Yrotation
          JOINT Spine4
          {
            OFFSET 10.9679 0 0
            CHANNELS 3 Zrotation Xrotation Yrotation
            JOINT RightShoulder
            {
              OFFSET 2.46616 -1.6653 3.69651
              CHANNELS 3 Zrotation Xrotation Yrotation
              JOINT RightArm
              {
                OFFSET 13.0012 0 0
                CHANNELS 3 Zrotation Xrotation Yrotation
                JOINT RightForeArm
                {
                  OFFSET 28.7848 1.52588e-005 0
                  CHANNELS 3 Zrotation Xrotation Yrotation
                  JOINT RightHand
                  {
                    OFFSET 26.5688 1.52588e-005 0
                    CHANNELS 3 Zrotation Xrotation Yrotation
                    End Site
                    {
                      OFFSET 0 0 0
                    }
                  }
                }
              }
            }
            JOINT LeftShoulder
            {
              OFFSET 2.38034 -1.29275 -3.7523
              CHANNELS 3 Zrotation Xrotation Yrotation
              JOINT LeftArm
              {
                OFFSET 16.3182 6.10351e-005 0
                CHANNELS 3 Zrotation Xrotation Yrotation
                JOINT LeftForeArm
                {
                  OFFSET 27.0901 0 0
                  CHANNELS 3 Zrotation Xrotation Yrotation
                  JOINT LeftHand
                  {
                    OFFSET 24.5451 1.52588e-005 0
                    CHANNELS 3 Zrotation Xrotation Yrotation
                    End Site
                    {
                      OFFSET 0 0 0
                    }
                  }
                }
              }
            }
            JOINT Neck
            {
              OFFSET 5.0226 -0.0266342 0
              CHANNELS 3 Zrotation Xrotation Yrotation
              JOINT Head
              {
                OFFSET 6.69363 2.86102e-005 0
                CHANNELS 3 Zrotation Xrotation Yrotation
                End Site
                {
                  OFFSET 0 0 0
                }
              }
            }
          }
        }
      }
    }
  }
}
MOTION
Frames:	7
Frame Time:	0.0416667
-6.97028 97.5939 -38.6412 -82.4372 -86.2185 -83.1096 -172.355 6.06017 90.7899 -10.6147 10.1504 0.149824 61.3278 1.71695 0.230842 30.167 1.10284 -0.092687 173.825 4.76892 88.982 -12.0941 -4.89939 -2.82973 64.8398 -2.74781 -1.50268 29.2579 0.0300636 -0.121637 -0.116554 6.86748 -89.9723 13.1437 -0.217969 0.0824663 1.47281 -0.214109 0.0919704 -21.0625 -0.232668 0.0131437 -1.04985 -0.232668 0.0131435 92.4771 -52.7039 -96.5258 23.1777 -6.36874 0.813903 -8.12519 -28.0465 -41.4961 -3.16489 -0.710913 4.7668 -106.431 -54.5739 56.828 -14.8941 15.3336 2.82664 0.957442 11.6623 -30.0148 14.053 0.968253 2.95614 12.2061 1.87685 1.48191 -6.84948 1.51044 0.222805 
-6.98419 97.5854 -38.5955 -82.9841 -86.1042 -83.6773 -172.248 5.9299 90.8549 -10.5075 10.8556 0.0258914 61.3141 1.82368 0.595317 30.2446 1.10662 0.620325 173.821 4.8205 88.9925 -12.2598 -4.72853 -2.82433 64.8414 -2.71722 -1.47966 29.5651 0.0300827 0.165062 -0.118075 6.86753 -89.9872 13.1535 -0.228161 0.0538063 1.48252 -0.225567 0.0637878 -21.0528 -0.233777 -0.0172471 -1.04015 -0.233779 -0.0172534 92.3835 -52.4182 -96.716 23.2568 -6.27835 0.761506 -9.24431 -30.0308 -41.2286 -3.59125 -0.818112 6.11207 -106.252 -54.693 57.1204 -15.2691 14.8367 2.94303 1.43807 11.581 -30.6645 12.894 1.16005 4.93209 12.301 1.93364 1.53402 -7.26023 1.53998 0.686605 
-6.97788 97.6116 -38.5925 -83.4245 -86.1111 -84.1036 -172.233 5.85939 90.8714 -10.4091 10.6272 0.0294061 61.2489 1.78962 0.446911 30.1849 1.07978 0.364621 173.811 4.93138 88.9901 -12.5045 -4.6998 -2.80675 64.6413 -2.60967 -1.41702 29.8762 0.0464694 0.150931 -0.114918 6.86753 -89.9903 13.1366 -0.223372 0.0471304 1.46564 -0.221071 0.0569163 -21.0697 -0.227209 -0.022172 -1.05702 -0.22721 -0.0221776 92.4209 -52.4341 -96.6574 23.2168 -6.37925 0.858752 -9.24173 -29.7795 -41.6862 -3.29003 -0.809095 6.46823 -106.328 -54.7231 57.0302 -15.2416 14.85 2.91038 1.26467 11.3171 -30.5919 12.7456 1.16107 5.0403 12.3234 1.86652 1.60094 -7.19468 1.46229 0.574639 
-6.97952 97.6178 -38.5551 -82.7548 -86.133 -83.4513 -172.278 5.78413 90.8328 -10.2317 10.7807 0.0625774 61.1695 1.81769 0.63132 30.403 1.25286 0.36714 173.819 5.0782 88.9362 -12.8149 -5.17779 -2.85858 64.6212 -2.59532 -1.40896 30.0912 0.0880158 -0.420025 -0.11677 6.86754 -89.9954 13.1353 -0.229533 0.0376767 1.46432 -0.227651 0.0477447 -21.071 -0.230253 -0.0330522 -1.05835 -0.230248 -0.033047 92.448 -52.1826 -96.6625 23.4706 -6.38947 0.851701 -9.31801 -30.0208 -41.5067 -3.5018 -0.823379 6.37295 -106.418 -54.8292 56.9529 -15.2093 14.8706 2.8812 1.18538 11.2517 -30.4909 12.7135 1.10939 4.67219 12.1526 1.91897 1.70739 -6.97777 1.49861 0.402218 
-6.98467 97.5993 -38.5034 -81.2568 -86.1481 -81.8643 -172.228 6.03007 90.929 -10.5863 10.7181 0.0511233 61.4261 1.85344 0.33325 30.0228 0.939954 0.497632 173.851 4.95616 89.0479 -12.4672 -4.90669 -2.80279 64.7962 -2.69766 -1.47085 29.6519 0.0480961 -0.077997 -0.105031 6.86753 -90.012 13.1388 -0.214182 0.00253714 1.46788 -0.213854 0.0119537 -21.0674 -0.205028 -0.0619417 -1.05475 -0.205043 -0.0619538 92.4683 -52.1021 -96.6459 23.3967 -6.49659 0.928127 -9.24854 -29.7731 -41.9517 -3.2611 -0.811631 6.59924 -106.527 -54.8345 56.8086 -15.2787 14.7552 2.90759 1.3573 11.3268 -30.6134 12.6472 1.0947 4.60273 12.1594 1.97333 1.89143 -7.01302 1.51703 0.192516 
-6.99796 97.6003 -38.3994 -81.8156 -86.3803 -82.4792 -172.251 5.80124 90.8829 -10.3512 11.1612 0.0533356 61.2756 1.8686 0.618418 30.4387 1.2572 0.675922 173.704 4.81567 88.9359 -12.4748 -4.89955 -2.7311 64.7992 -2.66464 -1.4487 29.8224 0.0688382 -0.300341 -0.128417 6.87212 -90.0111 13.1297 -0.260156 0.0100649 1.45876 -0.259457 0.0214983 -21.0766 -0.251156 -0.0685907 -1.06395 -0.251152 -0.0685903 92.3016 -52.2548 -96.8685 23.3835 -6.31114 1.21458 -9.58225 -29.7406 -42.0774 -3.31163 -0.816082 6.58312 -106.716 -54.8057 56.5417 -15.4371 14.6255 3.04274 1.43345 11.3786 -30.5348 12.616 1.04104 4.21575 11.8805 1.94206 1.82316 -6.77031 1.50131 0.411658 
-7.00229 97.6066 -38.3661 -82.295 -86.2878 -83.0235 -172.271 5.76538 90.8265 -10.3737 11.0611 0.0416376 61.2047 1.81705 0.649455 30.476 1.28923 0.64671 173.742 4.84972 88.8953 -12.5948 -4.95232 -2.81004 64.8443 -2.67439 -1.45316 29.8376 0.0684107 -0.279436 -0.125865 6.88325 -89.9968 13.1083 -0.24827 0.0371135 1.43734 -0.246385 0.0480001 -21.098 -0.247942 -0.0392178 -1.08537 -0.247947 -0.0392186 92.3484 -52.3039 -96.7894 23.332 -6.37912 1.09095 -9.45416 -29.7007 -42.0358 -3.13331 -0.800712 6.53926 -106.687 -54.836 56.5931 -15.4313 14.6135 3.13856 1.54243 11.3667 -30.7646 12.401 1.07689 4.61818 12.0133 1.9577 1.81268 -6.88539 1.51757 0.357363 
